<?xml version="1.0" ?><!DOCTYPE svg  PUBLIC '-//W3C//DTD SVG 1.1//EN'  'http://www.w3.org/Graphics/SVG/1.1/DTD/svg11.dtd'><svg enable-background="new 0 90 612 612" id="Layer_1" version="1.1" viewBox="0 90 612 612" xml:space="preserve" xmlns="http://www.w3.org/2000/svg" xmlns:xlink="http://www.w3.org/1999/xlink"><path d="M306,702C137,702,0,565,0,396S137,90,306,90s306,137,306,306S475,702,306,702z" fill="#36A7AA"/><g id="Layer_1_1_"/><path d="M306,702c169,0,306-137,306-306c0-81.5-31.9-155.4-83.8-210.3L92.9,615.6C148,669,223.2,702,306,702z" fill="#289395"/><g><path d="M465.7,384.7c-1.9,0.5-3.6,1.5-5.2,2.6c-0.8,0.5-1.6,1.7-2.5,1.3c-1.1-0.5-0.5-1.9-0.5-2.9   c0-42.8,0-85.7,0-128.5c0-3.9-0.5-7.8-1.7-11.5c-4.3-13.8-16.9-22.8-30.4-22.7c-40,0.3-80,0.1-120,0.1c-40.4,0-80.9,0-121.3,0   c-4.3,0-8.4,0.9-12.2,2.8c-12,6.2-18.4,16.4-18.5,29.7c-0.3,43.6-0.1,87.2-0.1,130.8c0,0.8,0.4,1.8-0.4,2.3   c-0.8,0.5-1.5-0.4-2.1-0.9c-2.2-1.5-4.4-2.9-7.1-3.3c-4-0.6-7.4,2.4-7.7,6.4c-0.3,3.9,1.2,6.8,3.5,9.6c4.3,5.2,9.2,9.9,14.4,14.2   c16,13.4,33.9,23.6,53.1,31.7c2.3,0.9,2.6,2,2,4.2c-4.1,15.2-6.8,30.6-5.9,46.4c0.7,13.6,3.4,26.7,10.4,38.5   c12.2,20.6,29.5,32.6,54.3,32.1c5.9-0.1,11.1-2.1,16.2-4.7c5.3-2.7,9.4-6.9,12.3-12.1c3.2-5.6,4.5-11.8,4.5-18.1   c0.1-14.6,0-29.3,0-43.9c0-6.8,0-13.5,0-20.3c0-1.8,0.5-2.5,2.4-1.9c1.1,0.4,2.2,0.6,3.3,0.8c3.2,0.8,3.2,0.8,3.2,4.2   c0,19.8,0,39.6,0,59.4c0,3,0.2,6,0.8,9c2.7,14.5,13.8,25.6,28.6,27.4c5.8,0.7,11.8,0.6,17.8-0.8c16.9-3.7,29.3-13.3,38.3-27.6   c8.7-13.8,12.2-29.1,12.6-45.2c0.3-14.7-2.2-29.1-6.1-43.3c-0.6-2.3-0.2-3.3,2-4.2c15.2-6.4,29.7-14.1,43-23.8   c8.9-6.4,17.2-13.5,24.4-21.9c1.8-2.2,3-4.6,3.6-7.4C475.7,387.5,471.2,383.3,465.7,384.7z M438.1,401   c-21,10.9-43.3,17.1-66.9,18.8c-11.1,0.8-22.2,0.5-33.3,0c-4.9-0.2-9.7-0.6-14.5,0.4c-7.2,1.5-11.7,5.7-13.2,13   c-0.5,2.6-0.7,2.7-2.9,1c-3.5-2.6-6.8-5.4-9.9-8.5c-5.1-5.2-11.6-6.4-18.4-6.2c-12.3,0.5-24.5,1.1-36.8,0.4   c-13.9-0.8-27.6-3.1-40.9-7.2c-9.5-2.9-18.6-6.6-27.5-11.2c-1.3-0.7-1.8-1.5-1.8-3c0-41.9,0-83.7,0.1-125.6c0-4.5,0.1-9,0.8-13.5   c1.7-11.3,7.8-17.1,19.3-18c2.2-0.2,4.3-0.3,6.5-0.3c35.8,0,71.6,0,107.4,0c36.2,0,72.5,0,108.7,0c2.9,0,5.7,0.3,8.5,0.9   c8.6,1.9,13.7,7.3,15.7,15.7c0.9,3.9,1.4,7.8,1.4,11.8c0,42.5,0,84.9,0.1,127.4C440.6,399,439.9,400.1,438.1,401z" fill="#FFFFFF"/><path d="M260.8,326.1c-11.2,0.2-20.2,3-28.1,9.1c-18.5,14.2-20.2,41.4-3.5,57.1c14.9,14,37,16.1,54.2,5.1   c16.8-10.7,22.7-31.6,13.5-49.3C289,333.2,275.8,326.9,260.8,326.1z" fill="#FFFFFF"/><path d="M355.9,326.1c-9.6,0.2-18.3,2.9-26,8.6c-16.6,12.2-20.6,35.2-9,51.6c12.8,18,38.2,23.4,57.2,12.1   c17.6-10.5,24.3-30,16.5-48.3C388.6,336,372.6,326.1,355.9,326.1z" fill="#FFFFFF"/></g><path d="M465.7,384.7c-1.9,0.5-3.6,1.5-5.2,2.6c-0.8,0.5-1.6,1.7-2.5,1.3c-1.1-0.5-0.5-1.9-0.5-2.9  c0-42.8,0-85.7,0-128.5c0-0.5,0-1.1,0-1.6l-17,16.8c0,41.6,0,83.1,0.1,124.7c0,2-0.6,3.1-2.4,4c-21,10.9-43.3,17.1-66.9,18.8  c-11.1,0.8-22.2,0.5-33.3,0c-4.9-0.2-9.7-0.6-14.5,0.4c-7.2,1.5-11.7,5.7-13.2,13c-0.5,2.6-0.7,2.7-2.9,1c-3.5-2.6-6.8-5.4-9.9-8.5  c-2.3-2.3-4.8-3.8-7.5-4.8l-86.1,85c1.3,10.4,4.2,20.4,9.6,29.5c12.2,20.6,29.5,32.6,54.3,32.1c5.9-0.1,11.1-2.1,16.2-4.7  c5.3-2.7,9.4-6.9,12.3-12.1c3.2-5.6,4.5-11.8,4.5-18.1c0.1-14.6,0-29.3,0-43.9c0-6.8,0-13.5,0-20.3c0-1.8,0.5-2.5,2.4-1.9  c1.1,0.4,2.2,0.6,3.3,0.8c3.2,0.8,3.2,0.8,3.2,4.2c0,19.8,0,39.6,0,59.4c0,3,0.2,6,0.8,9c2.7,14.5,13.8,25.6,28.6,27.4  c5.8,0.7,11.8,0.6,17.8-0.8c16.9-3.7,29.3-13.3,38.3-27.6c8.7-13.8,12.2-29.1,12.6-45.2c0.3-14.7-2.2-29.1-6.1-43.3  c-0.6-2.3-0.2-3.3,2-4.2c15.2-6.4,29.7-14.1,43-23.8c8.9-6.4,17.2-13.5,24.4-21.9c1.8-2.2,3-4.6,3.6-7.4  C475.7,387.5,471.2,383.3,465.7,384.7z M378,398.4c17.6-10.5,24.3-30,16.5-48.3c-3-7.1-8.5-13.1-15.3-17.3l-56.6,55.9  C335.9,404.8,359.9,409.2,378,398.4z" fill="#F1F2F2"/></svg>