<svg width="23" height="13" xmlns="http://www.w3.org/2000/svg">

 <g>
  <title>background</title>
  <rect fill="none" id="canvas_background" height="15" width="25" y="-1" x="-1"/>
 </g>
 <g>
  <title>Layer 1</title>
  <path transform="translate(-0.36832213401794434,-0.36832213401794434) " id="svg_2" fill="#DA8541" d="m27,-6.080967l0,24c0,0.55 -0.45,1 -1,1l-20,0c-0.55,0 -1,-0.45 -1,-1l0,-5l-3,0c-0.55,0 -1,-0.45 -1,-1l0,-10c0,-0.55 0.45,-1 1,-1l3,0l0,-11c0,-0.55 0.45,-1 1,-1l16,0c0.27,0 0.52,0.11 0.71,0.29l4,4c0.18,0.19 0.29,0.44 0.29,0.71z"/>
  <path id="svg_4" fill="#FFB841" d="m27.148987,-7.327617l-4,-4c-0.1875,-0.1875 -0.4419,-0.293 -0.707,-0.293l-16,0c-0.5522,0 -1,0.4478 -1,1l0,11l-3,0c-0.5522,0 -1,0.4478 -1,1l0,10c0,0.5522 0.4478,1 1,1l3,0l0,5c0,0.5522 0.4478,1 1,1l20,0c0.5522,0 1,-0.4478 1,-1l0,-24c0,-0.2651 -0.1055,-0.5195 -0.293,-0.707zm-23.707,9.707l18,0l0,8l-18,0l0,-8zm22,14l-18,0l0,-4l15,0c0.5522,0 1,-0.4478 1,-1l0,-10c0,-0.5522 -0.4478,-1 -1,-1l-15,0l0,-10l14.5859,0l3.4141,3.4141l0,22.5859z"/>
  <path id="svg_5" fill="#FFB841" d="m7.834466,7.685583c0.0586,-0.1406 0.0957,-0.2793 0.1123,-0.416s0.0254,-0.3027 0.0254,-0.498l0,-2.25c0,-0.1758 -0.04,-0.3076 -0.1191,-0.3955s-0.1855,-0.1318 -0.3203,-0.1318c-0.1328,0 -0.2383,0.0439 -0.3154,0.1318s-0.1152,0.2197 -0.1152,0.3955l0,2.376c0,0.5645 -0.1924,0.8467 -0.5771,0.8467c-0.1445,0 -0.2559,-0.0322 -0.334,-0.0967s-0.1338,-0.1416 -0.167,-0.2314s-0.0664,-0.21 -0.0996,-0.3604c-0.0313,-0.1406 -0.0762,-0.2441 -0.1348,-0.3105s-0.1455,-0.0996 -0.2607,-0.0996c-0.1191,0 -0.2168,0.0361 -0.293,0.1084s-0.1143,0.1768 -0.1143,0.3135c0,0.1289 0.0195,0.2646 0.0586,0.4072s0.0898,0.2686 0.1523,0.3779c0.1191,0.2051 0.2754,0.3535 0.4697,0.4453s0.4375,0.1377 0.7285,0.1377c0.3223,0 0.5957,-0.0654 0.8203,-0.1973s0.3857,-0.3164 0.4834,-0.5528z"/>
  <path id="svg_6" fill="#FFB841" d="m10.015046,8.656577c0.125,0 0.2285,-0.0449 0.3105,-0.1348s0.123,-0.2217 0.123,-0.3955l0,-1.2158l0.7969,0c0.5332,0 0.9346,-0.1123 1.2041,-0.3379s0.4043,-0.5576 0.4043,-0.9951c0,-0.2051 -0.0332,-0.3896 -0.0996,-0.5537s-0.1641,-0.3027 -0.292,-0.416s-0.2793,-0.1943 -0.4551,-0.2432c-0.1777,-0.0508 -0.4316,-0.0762 -0.7617,-0.0762l-1.1162,0c-0.1914,0 -0.3311,0.041 -0.4189,0.123s-0.1318,0.2188 -0.1318,0.4102l0,3.3105c0,0.1719 0.04,0.3027 0.1201,0.3916s0.1855,0.1329 0.3164,0.1329zm0.4336,-3.7148l0.5859,0c0.3887,0 0.6455,0.0635 0.7705,0.1904c0.1113,0.1191 0.167,0.2734 0.167,0.4629c0,0.1582 -0.0361,0.2861 -0.1084,0.3838s-0.1777,0.168 -0.3154,0.2109s-0.3086,0.0645 -0.5137,0.0645l-0.5859,0l0,-1.3125z"/>
  <path id="svg_7" fill="#FFB841" d="m13.966317,8.657041l2.3643,0c0.1367,0 0.2393,-0.0313 0.3086,-0.0947s0.1045,-0.1465 0.1045,-0.248c0,-0.1055 -0.0352,-0.1895 -0.1045,-0.2529s-0.1719,-0.0957 -0.3086,-0.0957l-2.0273,0l0,-1.2217l1.8047,0c0.1348,0 0.2344,-0.0303 0.2988,-0.0918s0.0967,-0.1416 0.0967,-0.2393s-0.0332,-0.1758 -0.0986,-0.2354s-0.1641,-0.0898 -0.2969,-0.0898l-1.8047,0l0,-1.0547l1.96,0c0.1387,0 0.2412,-0.0303 0.3086,-0.0918s0.1016,-0.1436 0.1016,-0.2451c0,-0.0996 -0.0342,-0.1797 -0.1016,-0.2412s-0.1699,-0.0928 -0.3086,-0.0928l-2.2969,0c-0.123,0 -0.2246,0.0186 -0.3037,0.0547s-0.1367,0.0938 -0.1738,0.1729s-0.0557,0.1807 -0.0557,0.3057l0,3.2285c0,0.1875 0.041,0.3232 0.124,0.4072s0.2197,0.1259 0.4091,0.1259z"/>
  <path id="svg_8" fill="#FFB841" d="m17.55936,8.061876c0.1914,0.1934 0.4229,0.3408 0.6943,0.4424s0.5723,0.1523 0.9023,0.1523c0.2832,0 0.5449,-0.0322 0.7852,-0.0967s0.4902,-0.167 0.75,-0.3076c0.0898,-0.0488 0.1631,-0.0996 0.2207,-0.1523s0.0977,-0.1113 0.1191,-0.1768s0.0322,-0.1533 0.0322,-0.2627l0,-0.8232c0,-0.1484 -0.0264,-0.2598 -0.0781,-0.334s-0.1191,-0.1221 -0.2031,-0.1436s-0.1865,-0.0322 -0.3076,-0.0322l-0.9873,0c-0.1191,0 -0.2139,0.0313 -0.2832,0.0938s-0.1035,0.1416 -0.1035,0.2373c0,0.1172 0.041,0.2002 0.124,0.249s0.2061,0.0732 0.3682,0.0732l0.6738,0l0,0.6973c-0.1816,0.0977 -0.3613,0.1729 -0.5381,0.2256s-0.3652,0.0791 -0.5664,0.0791c-0.4141,0 -0.7373,-0.1357 -0.9688,-0.4072s-0.3467,-0.6592 -0.3467,-1.1631c0,-0.2324 0.0293,-0.4443 0.0889,-0.6357s0.1455,-0.3525 0.2578,-0.4844s0.248,-0.2324 0.4063,-0.3018s0.3379,-0.1045 0.5391,-0.1045c0.1953,0 0.3555,0.0293 0.4814,0.0879s0.2266,0.1309 0.3008,0.2168s0.165,0.2129 0.2725,0.3809c0.0391,0.0527 0.0869,0.0938 0.1445,0.123s0.1182,0.0439 0.1807,0.0439c0.1133,0 0.21,-0.0381 0.291,-0.1152s0.1221,-0.1709 0.1221,-0.2803c0,-0.1016 -0.0352,-0.2178 -0.1055,-0.3486s-0.1748,-0.2549 -0.3135,-0.3721s-0.3193,-0.2139 -0.542,-0.291s-0.4785,-0.1162 -0.7676,-0.1162c-0.3516,0 -0.666,0.0518 -0.9434,0.1543s-0.5127,0.25 -0.7061,0.4434s-0.3398,0.4287 -0.4395,0.7061s-0.1494,0.583 -0.1494,0.917c0,0.3398 0.0508,0.6475 0.1533,0.9229s0.2502,0.5096 0.4416,0.703z"/>
 </g>
</svg>